<svg width="537" height="203" viewBox="0 0 537 203" fill="none" xmlns="http://www.w3.org/2000/svg">
<path d="M24.255 192.373C19.145 192.373 15.015 191.043 11.865 188.383C8.785 185.793 7.245 182.363 7.245 178.093C7.245 175.433 7.875 172.983 9.135 170.743C10.395 168.503 12.11 166.753 14.28 165.493C16.45 164.163 18.83 163.498 21.42 163.498C24.08 163.498 26.215 164.163 27.825 165.493C29.505 166.823 30.345 168.573 30.345 170.743C30.345 172.423 29.96 173.753 29.19 174.733C28.56 173.893 27.685 173.228 26.565 172.738C25.515 172.248 24.395 172.003 23.205 172.003C21.105 172.003 19.39 172.703 18.06 174.103C16.73 175.503 16.065 177.323 16.065 179.563C16.065 181.803 16.695 183.623 17.955 185.023C19.285 186.423 20.93 187.123 22.89 187.123C25.34 187.123 27.44 186.038 29.19 183.868C30.94 181.698 32.27 178.478 33.18 174.208L38.43 151.003H38.01C36.12 153.663 33.81 155.693 31.08 157.093C28.42 158.493 25.48 159.193 22.26 159.193C18.2 159.193 14.63 158.108 11.55 155.938C8.47 153.768 6.09 150.688 4.41 146.698C2.8 142.638 1.995 137.948 1.995 132.628C1.995 124.928 3.675 117.928 7.035 111.628C10.395 105.258 15.015 100.253 20.895 96.613C26.775 92.973 33.25 91.153 40.32 91.153C46.27 91.153 50.96 92.448 54.39 95.038C57.89 97.628 59.64 101.163 59.64 105.643C59.64 108.653 58.905 111.068 57.435 112.888C55.965 114.708 54.04 115.618 51.66 115.618C50.33 115.618 49.07 115.338 47.88 114.778C46.76 114.218 45.815 113.413 45.045 112.363C46.305 111.523 47.355 110.193 48.195 108.373C49.105 106.483 49.56 104.593 49.56 102.703C49.56 100.603 48.93 98.993 47.67 97.873C46.48 96.683 44.765 96.088 42.525 96.088C38.465 96.088 34.545 97.908 30.765 101.548C26.985 105.118 23.94 109.808 21.63 115.618C19.32 121.428 18.165 127.518 18.165 133.888C18.165 139.138 19.005 143.163 20.685 145.963C22.365 148.693 24.78 150.058 27.93 150.058C31.71 150.058 35.035 148.063 37.905 144.073C40.845 140.083 43.19 134.273 44.94 126.643L57.33 126.748L49.665 162.028C47.425 172.458 44.24 180.123 40.11 185.023C36.05 189.923 30.765 192.373 24.255 192.373ZM71.0981 171.268C67.7381 171.268 65.0081 170.218 62.9081 168.118C60.8781 166.018 59.8631 162.868 59.8631 158.668C59.8631 156.918 60.1431 154.643 60.7031 151.843L67.8431 118.138H82.9631L75.4031 153.838C75.1931 154.888 75.0881 155.868 75.0881 156.778C75.0881 159.648 76.1381 161.083 78.2381 161.083C80.1981 161.083 81.8781 160.278 83.2781 158.668C84.6781 156.988 85.7981 154.713 86.6381 151.843L93.7781 118.138H108.898L101.338 153.838C101.058 154.888 100.918 156.008 100.918 157.198C100.918 158.598 101.233 159.613 101.863 160.243C102.563 160.803 103.683 161.083 105.223 161.083C107.183 161.083 108.863 160.243 110.263 158.563C111.733 156.883 112.888 154.643 113.728 151.843H118.138C115.548 159.403 112.328 164.548 108.478 167.278C104.698 169.938 100.883 171.268 97.0331 171.268C94.0231 171.268 91.6081 170.428 89.7881 168.748C88.0381 167.068 86.9881 164.583 86.6381 161.293C84.2581 165.143 81.7381 167.768 79.0781 169.168C76.4881 170.568 73.8281 171.268 71.0981 171.268ZM131.251 112.468C128.941 112.468 126.981 111.663 125.371 110.053C123.761 108.443 122.956 106.483 122.956 104.173C122.956 101.863 123.761 99.903 125.371 98.293C126.981 96.613 128.941 95.773 131.251 95.773C133.561 95.773 135.521 96.613 137.131 98.293C138.811 99.903 139.651 101.863 139.651 104.173C139.651 106.483 138.811 108.443 137.131 110.053C135.521 111.663 133.561 112.468 131.251 112.468ZM124.111 171.268C120.751 171.268 118.021 170.218 115.921 168.118C113.891 166.018 112.876 162.868 112.876 158.668C112.876 156.918 113.156 154.643 113.716 151.843L120.856 118.138H135.976L128.416 153.838C128.136 154.888 127.996 156.008 127.996 157.198C127.996 158.598 128.311 159.613 128.941 160.243C129.641 160.803 130.761 161.083 132.301 161.083C134.331 161.083 136.221 160.243 137.971 158.563C139.721 156.813 140.981 154.573 141.751 151.843H146.161C143.571 159.403 140.246 164.548 136.186 167.278C132.126 169.938 128.101 171.268 124.111 171.268ZM152.104 171.268C148.744 171.268 146.014 170.218 143.914 168.118C141.884 166.018 140.869 162.868 140.869 158.668C140.869 156.918 141.149 154.643 141.709 151.843L148.009 122.338H144.544L145.384 118.138H148.849L151.999 103.648L167.539 101.548L163.969 118.138H170.269L169.429 122.338H163.129L156.409 153.838C156.129 154.888 155.989 156.008 155.989 157.198C155.989 158.598 156.304 159.613 156.934 160.243C157.634 160.803 158.754 161.083 160.294 161.083C162.324 161.083 164.214 160.243 165.964 158.563C167.714 156.813 168.974 154.573 169.744 151.843H174.154C171.564 159.403 168.239 164.548 164.179 167.278C160.119 169.938 156.094 171.268 152.104 171.268ZM182.302 171.268C178.312 171.268 174.987 169.903 172.327 167.173C169.667 164.443 168.337 160.173 168.337 154.363C168.337 149.183 169.352 143.758 171.382 138.088C173.482 132.348 176.562 127.518 180.622 123.598C184.752 119.608 189.652 117.613 195.322 117.613C198.192 117.613 200.327 118.103 201.727 119.083C203.127 120.063 203.827 121.358 203.827 122.968V123.703L204.982 118.138H220.102L212.542 153.838C212.262 154.888 212.122 156.008 212.122 157.198C212.122 160.208 213.557 161.713 216.427 161.713C218.387 161.713 220.067 160.803 221.467 158.983C222.937 157.163 224.092 154.783 224.932 151.843H229.342C226.752 159.403 223.532 164.548 219.682 167.278C215.902 169.938 212.087 171.268 208.237 171.268C205.297 171.268 202.917 170.463 201.097 168.853C199.347 167.173 198.297 164.758 197.947 161.608C195.917 164.478 193.642 166.823 191.122 168.643C188.672 170.393 185.732 171.268 182.302 171.268ZM189.127 161.083C190.877 161.083 192.592 160.278 194.272 158.668C196.022 156.988 197.212 154.713 197.842 151.843L202.882 128.113C202.882 127.203 202.532 126.328 201.832 125.488C201.132 124.578 200.047 124.123 198.577 124.123C195.777 124.123 193.257 125.768 191.017 129.058C188.777 132.278 187.027 136.198 185.767 140.818C184.507 145.368 183.877 149.393 183.877 152.893C183.877 156.393 184.367 158.633 185.347 159.613C186.397 160.593 187.657 161.083 189.127 161.083ZM232.111 118.138H247.231L245.866 124.648C248.246 122.548 250.381 120.938 252.271 119.818C254.231 118.698 256.331 118.138 258.571 118.138C260.811 118.138 262.561 118.908 263.821 120.448C265.151 121.988 265.816 123.843 265.816 126.013C265.816 128.043 265.151 129.828 263.821 131.368C262.491 132.908 260.636 133.678 258.256 133.678C256.716 133.678 255.666 133.328 255.106 132.628C254.616 131.858 254.231 130.773 253.951 129.373C253.741 128.463 253.531 127.798 253.321 127.378C253.111 126.958 252.726 126.748 252.166 126.748C250.696 126.748 249.436 127.063 248.386 127.693C247.406 128.253 246.111 129.268 244.501 130.738L236.101 170.638H220.981L232.111 118.138ZM290.173 99.238C285.483 101.198 281.843 104.138 279.253 108.058C276.733 111.978 275.473 116.703 275.473 122.233C275.473 124.823 275.718 126.643 276.208 127.693C276.698 128.673 276.943 129.233 276.943 129.373C273.163 129.373 270.328 128.603 268.438 127.063C266.618 125.453 265.708 122.828 265.708 119.188C265.708 114.708 267.528 110.368 271.168 106.168C274.878 101.898 279.603 98.468 285.343 95.878C291.083 93.218 296.823 91.888 302.563 91.888C303.543 91.888 304.943 91.958 306.763 92.098L300.043 123.388H315.478L322.198 92.098H337.318L320.623 170.638H305.503L313.903 131.158H298.468L290.068 170.638H274.948L290.173 99.238ZM349.607 171.058C344.427 171.058 340.332 169.728 337.322 167.068C334.312 164.408 332.807 160.208 332.807 154.468C332.807 149.708 333.787 144.423 335.747 138.613C337.707 132.803 340.857 127.798 345.197 123.598C349.537 119.328 354.997 117.193 361.577 117.193C370.537 117.193 375.017 122.793 375.017 133.993V134.098C375.227 134.168 375.612 134.203 376.172 134.203C378.482 134.203 381.142 133.608 384.152 132.418C387.162 131.158 389.892 129.653 392.342 127.903L393.287 130.738C391.257 132.908 388.597 134.763 385.307 136.303C382.087 137.773 378.552 138.823 374.702 139.453C374.142 145.823 372.707 151.388 370.397 156.148C368.087 160.908 365.112 164.583 361.472 167.173C357.832 169.763 353.877 171.058 349.607 171.058ZM353.807 161.608C355.487 161.608 357.167 160.663 358.847 158.773C360.527 156.813 361.997 154.188 363.257 150.898C364.517 147.538 365.427 143.828 365.987 139.768C364.097 139.348 363.152 137.878 363.152 135.358C363.152 132.488 364.237 130.598 366.407 129.688C366.267 127.378 365.917 125.803 365.357 124.963C364.797 124.053 363.817 123.598 362.417 123.598C360.107 123.598 357.867 125.278 355.697 128.638C353.527 131.998 351.777 136.023 350.447 140.713C349.117 145.403 348.452 149.533 348.452 153.103C348.452 156.463 348.837 158.738 349.607 159.928C350.377 161.048 351.777 161.608 353.807 161.608ZM390.815 171.268C387.455 171.268 384.725 170.218 382.625 168.118C380.595 166.018 379.58 162.868 379.58 158.668C379.58 156.918 379.86 154.643 380.42 151.843L387.56 118.138H402.68L395.12 153.838C394.91 154.888 394.805 155.868 394.805 156.778C394.805 159.648 395.855 161.083 397.955 161.083C399.915 161.083 401.595 160.278 402.995 158.668C404.395 156.988 405.515 154.713 406.355 151.843L413.495 118.138H428.615L421.055 153.838C420.775 154.888 420.635 156.008 420.635 157.198C420.635 158.598 420.95 159.613 421.58 160.243C422.28 160.803 423.4 161.083 424.94 161.083C426.9 161.083 428.58 160.243 429.98 158.563C431.45 156.883 432.605 154.643 433.445 151.843H437.855C435.265 159.403 432.045 164.548 428.195 167.278C424.415 169.938 420.6 171.268 416.75 171.268C413.74 171.268 411.325 170.428 409.505 168.748C407.755 167.068 406.705 164.583 406.355 161.293C403.975 165.143 401.455 167.768 398.795 169.168C396.205 170.568 393.545 171.268 390.815 171.268ZM445.403 171.268C442.043 171.268 439.208 170.638 436.898 169.378C434.588 168.048 432.873 166.368 431.753 164.338C430.633 162.238 430.073 160.068 430.073 157.828C430.073 155.518 430.633 153.523 431.753 151.843C432.803 150.093 434.098 148.833 435.638 148.063C438.368 143.163 440.748 138.228 442.778 133.258C444.808 128.218 446.733 122.793 448.553 116.983L464.093 114.883C464.443 123.843 465.038 133.538 465.878 143.968C466.228 148.168 466.403 151.213 466.403 153.103C466.403 154.713 466.263 156.043 465.983 157.093C469.273 155.203 471.793 153.453 473.543 151.843H477.953C473.473 157.023 468.118 161.398 461.888 164.968C459.858 167.138 457.338 168.748 454.328 169.798C451.388 170.778 448.413 171.268 445.403 171.268ZM442.043 162.973C444.633 162.973 446.803 162.203 448.553 160.663C450.303 159.123 451.178 156.638 451.178 153.208C451.178 151.108 450.968 148.168 450.548 144.388C449.848 136.408 449.393 131.053 449.183 128.323C447.503 133.853 444.668 140.468 440.678 148.168C442.288 149.008 443.093 150.233 443.093 151.843C443.093 153.173 442.638 154.363 441.728 155.413C440.888 156.463 439.803 156.988 438.473 156.988C437.003 156.988 436.058 156.533 435.638 155.623C435.638 158.143 436.128 159.998 437.108 161.188C438.158 162.378 439.803 162.973 442.043 162.973ZM488.33 171.268C483.22 171.268 479.23 169.938 476.36 167.278C473.49 164.548 472.055 160.313 472.055 154.573C472.055 149.743 473 144.423 474.89 138.613C476.78 132.803 479.86 127.798 484.13 123.598C488.4 119.328 493.825 117.193 500.405 117.193C508.105 117.193 511.955 120.553 511.955 127.273C511.955 131.193 510.835 134.798 508.595 138.088C506.355 141.378 503.38 144.038 499.67 146.068C495.96 148.028 492.005 149.148 487.805 149.428C487.665 150.968 487.595 152.018 487.595 152.578C487.595 158.388 489.765 161.293 494.105 161.293C496.065 161.293 498.165 160.768 500.405 159.718C502.645 158.668 504.675 157.338 506.495 155.728C504.605 166.088 498.55 171.268 488.33 171.268ZM488.54 144.388C491.2 144.318 493.685 143.443 495.995 141.763C498.375 140.083 500.265 137.948 501.665 135.358C503.135 132.698 503.87 129.933 503.87 127.063C503.87 124.193 502.995 122.758 501.245 122.758C498.795 122.758 496.345 124.998 493.895 129.478C491.515 133.888 489.73 138.858 488.54 144.388Z" fill="white"/>
<path d="M150.4 2.03803C160.3 4.73803 171.8 10.838 183.6 19.638C201.6 33.038 205 33.738 224.2 27.638C233.3 24.738 239.8 21.6381 256.2 12.3381C267.6 5.93808 277.4 0.638005 277.9 0.638005C278.5 0.638005 286.8 5.23798 296.4 10.738L313.9 20.8381L314.4 16.638C314.7 14.338 315.3 11.838 315.7 11.138C316.6 9.83801 333.4 9.43803 339.2 10.538L342.3 11.138L342.9 37.4381L352.4 43.238C357.6 46.338 366.4 51.4381 371.9 54.4381C384.6 61.4381 387.7 63.938 386.9 66.238C385.5 69.638 384.5 69.138 350.7 49.238L336.4 40.8381V15.8381L321.9 16.4381L321.6 23.638C321.3 31.738 320.8 32.1381 315.5 28.8381C304.3 22.0381 278.8 7.63801 277.9 7.63801C277 7.63801 265.7 14.038 256.5 19.638L253.2 21.738L258.5 22.8381C266 24.4381 273.1 27.9381 278.6 32.8381C286.1 39.5381 292.4 54.238 292.4 65.138C292.4 67.938 292.2 68.038 288.7 67.738L284.9 67.4381L284.1 60.9381C282.6 48.6381 275.9 38.2381 266.4 33.4381C255.9 28.1381 245.2 28.438 226.6 34.538C207.3 40.938 198.9 40.0381 185.9 30.4381C167.9 17.1381 160.8 12.9381 150.4 9.33808C142.8 6.73808 124.2 6.73808 116.4 9.33808C90.7999 17.8381 74.2999 41.438 73.3999 68.238C73.3999 73.538 73.7999 76.1381 74.6999 76.4381C75.2999 76.6381 172.9 77.0381 291.4 77.3381C409.9 77.6381 508.1 78.238 509.5 78.538C513.8 79.538 512.2 82.538 507.1 83.238C504.8 83.638 473.7 83.4381 437.9 82.9381C402.2 82.3381 330.4 81.4381 278.4 80.9381C254.684 80.6644 227.495 80.37 201.888 80.0927L201.868 80.0924C171.336 79.7618 143.056 79.4555 125.6 79.238L67.3999 78.638L66.7999 76.238C66.3999 74.838 66.3999 69.238 66.5999 63.638C68.0999 33.238 88.1999 8.53805 117.2 1.43805C126.1 -0.661946 141.6 -0.46197 150.4 2.03803Z" fill="#CA9E2E"/>
</svg>
